<svg width="22" height="23" viewBox="0 0 22 23" fill="none" xmlns="http://www.w3.org/2000/svg">
<path fill-rule="evenodd" clip-rule="evenodd" d="M20.1667 11.5C20.1667 16.5626 16.0626 20.6667 11 20.6667C5.93738 20.6667 1.83333 16.5626 1.83333 11.5C1.83333 6.43738 5.93738 2.33333 11 2.33333C16.0626 2.33333 20.1667 6.43738 20.1667 11.5ZM22 11.5C22 17.5752 17.0752 22.5 11 22.5C4.92487 22.5 0 17.5752 0 11.5C0 5.42487 4.92487 0.5 11 0.5C17.0752 0.5 22 5.42487 22 11.5ZM10.0833 13.3333V6.91667H11.9167V13.3333H10.0833ZM10.0833 16.0833V14.25H11.9167V16.0833H10.0833Z" fill="#FF7A7A"/>
</svg>
