<svg width="18" height="20" viewBox="0 0 18 20" fill="none" xmlns="http://www.w3.org/2000/svg">
<path d="M7.12355 11.9041C7.20085 11.9857 7.24427 12.0964 7.24427 12.2118C7.24427 12.3272 7.20085 12.4379 7.12355 12.5195L2.48037 17.4196C2.44204 17.46 2.39655 17.4921 2.34649 17.5139C2.29643 17.5358 2.24278 17.547 2.1886 17.547C2.07919 17.547 1.97427 17.501 1.89694 17.4194C1.81961 17.3377 1.77619 17.2269 1.77624 17.1115C1.77629 16.996 1.8198 16.8853 1.8972 16.8037L6.54038 11.9041C6.61773 11.8225 6.72261 11.7767 6.83197 11.7767C6.94132 11.7767 7.0462 11.8225 7.12355 11.9041ZM17.8867 17.1275C17.8657 17.1994 17.8275 17.2643 17.7756 17.316C17.7238 17.3677 17.6602 17.4043 17.5909 17.4222C17.5217 17.4402 17.4492 17.4389 17.3806 17.4186C17.312 17.3982 17.2495 17.3594 17.1993 17.3059L15.7994 15.8287L15.0389 16.6318L16.4393 18.1101C16.4896 18.1632 16.5259 18.2292 16.5449 18.3015C16.5639 18.3739 16.5648 18.4501 16.5475 18.523C16.5303 18.5958 16.4955 18.6627 16.4466 18.7171C16.3976 18.7716 16.3361 18.8118 16.2681 18.8337C16.016 18.9143 15.754 18.9548 15.4906 18.954C14.6841 18.954 13.8524 18.5894 13.2265 17.9289C12.6278 17.2972 12.2803 16.4724 12.2561 15.6404L9.55523 12.7899C9.52178 12.7704 9.49106 12.746 9.46396 12.7175L9.17676 12.4145C9.06836 12.793 8.87258 13.1372 8.607 13.4162L3.58122 18.7195C3.18215 19.1455 2.6444 19.3953 2.07715 19.4181H1.99981C1.73641 19.4209 1.47511 19.3684 1.23114 19.2636C0.987175 19.1587 0.765405 19.0038 0.578752 18.8076C-0.225104 17.9594 -0.186949 16.5382 0.664345 15.6399L5.69012 10.3366C5.95449 10.0566 6.28043 9.85004 6.63887 9.73534L6.3527 9.43337C6.32572 9.40478 6.30264 9.37236 6.28412 9.33706L3.57452 6.47729C2.78665 6.45226 2.00548 6.08554 1.4089 5.45384C0.578236 4.57621 0.241534 3.31717 0.550908 2.24366C0.571696 2.17179 0.609764 2.10682 0.661407 2.05507C0.71305 2.00333 0.776509 1.96657 0.845607 1.94839C0.914704 1.9302 0.987087 1.9312 1.05571 1.95129C1.12433 1.97138 1.18686 2.00987 1.2372 2.06302L2.63763 3.54025L3.39869 2.73661L1.9962 1.26211C1.94583 1.20899 1.90935 1.14301 1.89031 1.0706C1.87127 0.998184 1.87033 0.921803 1.88756 0.84889C1.9048 0.775976 1.93963 0.709013 1.98866 0.654518C2.0377 0.600023 2.09927 0.559852 2.16739 0.537916C3.18368 0.211458 4.37786 0.565665 5.20956 1.44275C5.80871 2.07445 6.15624 2.8993 6.18048 3.73177L9.78984 7.54045L15.3488 1.67073C15.3773 1.63984 15.4102 1.61378 15.4462 1.59347L17.3695 0.50527C17.4474 0.461546 17.5366 0.445341 17.6239 0.459038C17.7111 0.472735 17.792 0.515612 17.8545 0.581368C17.9169 0.647124 17.9578 0.732294 17.971 0.824365C17.9842 0.916437 17.9691 1.01056 17.9279 1.0929L16.8925 3.12238C16.8735 3.15981 16.8493 3.19408 16.8209 3.22413L11.2599 9.09222L14.8615 12.8927C15.6494 12.9178 16.43 13.2845 17.0271 13.9162C17.8599 14.7938 18.196 16.0534 17.8867 17.1253V17.1275ZM10.3792 11.1359L7.85264 8.46977L7.23957 9.11616L9.76612 11.7822L10.3792 11.1359ZM9.54595 9.02475L9.85171 9.3474L16.1939 2.655L16.5497 1.95747L15.8881 2.33235L9.54595 9.02475ZM4.03703 5.73623L6.65588 8.4997L7.56028 7.54535C7.63764 7.46378 7.74251 7.41796 7.85187 7.41796C7.96122 7.41796 8.0661 7.46378 8.14345 7.54535L8.96226 8.40938L9.20409 8.1542L5.47562 4.21983C5.43563 4.17764 5.40428 4.12724 5.38352 4.07173C5.36277 4.01623 5.35304 3.95681 5.35497 3.89718C5.37611 3.23991 5.11056 2.56958 4.62587 2.05867C4.24354 1.64771 3.74288 1.38212 3.20224 1.30346L4.27164 2.43246C4.34894 2.51409 4.39236 2.62476 4.39236 2.74015C4.39236 2.85554 4.34894 2.96622 4.27164 3.04784L2.9269 4.46685C2.84955 4.54841 2.74467 4.59423 2.63531 4.59423C2.52596 4.59423 2.42108 4.54841 2.34373 4.46685L1.27484 3.33893C1.3496 3.90858 1.60045 4.43626 1.98846 4.8401C2.47315 5.351 3.10788 5.63122 3.72972 5.60891H3.74416C3.79852 5.60872 3.85238 5.61987 3.90264 5.64172C3.9529 5.66357 3.99857 5.69569 4.03703 5.73623ZM8.44097 11.6381L7.37466 10.5134C7.17201 10.4979 6.96858 10.5291 6.77849 10.6048C6.58839 10.6805 6.41618 10.799 6.27381 10.9519L1.24751 16.2569C0.717969 16.8157 0.680329 17.6846 1.16244 18.1939C1.27864 18.3145 1.41736 18.4083 1.56978 18.4693C1.7222 18.5303 1.88498 18.5571 2.04776 18.5481C2.4063 18.5327 2.74587 18.374 2.99754 18.1041L8.02383 12.8019C8.2796 12.5363 8.43003 12.178 8.44458 11.7996C8.44654 11.7458 8.44533 11.6918 8.44097 11.6381ZM17.1607 16.0327C17.0859 15.4629 16.8344 14.9353 16.4455 14.5321C15.9608 14.0207 15.3261 13.741 14.7048 13.7633C14.6482 13.7653 14.5919 13.7551 14.5393 13.7332C14.4867 13.7113 14.439 13.6782 14.399 13.636L10.6767 9.70814L10.4349 9.96332L11.2542 10.8284C11.3315 10.9101 11.3749 11.0207 11.3749 11.1361C11.3749 11.2515 11.3315 11.3622 11.2542 11.4438L10.3503 12.3976L12.9599 15.1524C12.9998 15.1945 13.0311 15.2448 13.0519 15.3002C13.0726 15.3556 13.0824 15.4149 13.0805 15.4745C13.0599 16.1318 13.3255 16.8021 13.8096 17.3135C14.1921 17.7242 14.6927 17.9895 15.2333 18.0682L14.1639 16.9397C14.1255 16.8993 14.0951 16.8513 14.0743 16.7985C14.0536 16.7456 14.0429 16.689 14.0429 16.6318C14.0429 16.5746 14.0536 16.5179 14.0743 16.4651C14.0951 16.4123 14.1255 16.3642 14.1639 16.3238L15.5086 14.9048C15.586 14.8232 15.6908 14.7774 15.8002 14.7774C15.9095 14.7774 16.0144 14.8232 16.0918 14.9048L17.1607 16.0327Z" fill="#787486"/>
</svg>
