<svg width="6" height="9" viewBox="0 0 6 9" fill="none" xmlns="http://www.w3.org/2000/svg">
<path d="M4.6875 7.9375C4.92912 7.9375 5.125 7.74162 5.125 7.5V2.25C5.125 2.00838 4.92912 1.8125 4.6875 1.8125L2.0625 1.8125C1.82088 1.8125 1.625 2.00838 1.625 2.25V7.5C1.625 7.74162 1.82088 7.9375 2.0625 7.9375H4.6875ZM2.0625 8.8125C1.33763 8.8125 0.75 8.22487 0.75 7.5V2.25C0.75 1.52513 1.33763 0.9375 2.0625 0.9375L4.6875 0.9375C5.41237 0.9375 6 1.52513 6 2.25V7.5C6 8.22487 5.41237 8.8125 4.6875 8.8125H2.0625Z" fill="black"/>
</svg>
