<svg width="22" height="22" viewBox="0 0 22 22" fill="none" xmlns="http://www.w3.org/2000/svg">
<path d="M11 0C5.533 0 0 1.27286 0 3.70408V18.0714C0 20.6228 5.6672 22 11 22C16.3328 22 22 20.6228 22 18.0714V3.70408C22 1.27286 16.467 0 11 0ZM11 20.8776C4.8664 20.8776 1.1 19.2433 1.1 18.0714V11.0202C2.9788 12.3368 7.0026 13.0204 11 13.0204C14.9974 13.0204 19.0212 12.3357 20.9 11.0202V18.0714C20.9 19.2433 17.1336 20.8776 11 20.8776ZM11 11.898C4.9566 11.898 1.1 10.3681 1.1 9.31633V5.40796C2.9788 6.72459 7.0026 7.40816 11 7.40816C14.9974 7.40816 19.0212 6.72347 20.9 5.40796V9.31633C20.9 10.3692 17.0434 11.898 11 11.898ZM11 6.28572C4.9566 6.28572 1.1 4.75582 1.1 3.70408C1.1 2.65235 4.9566 1.12245 11 1.12245C17.0434 1.12245 20.9 2.65122 20.9 3.70408C20.9 4.75694 17.0434 6.28572 11 6.28572Z" fill="#1969BF"/>
</svg>
