<svg width="17" height="15" viewBox="0 0 17 15" fill="none" xmlns="http://www.w3.org/2000/svg">
<path opacity="0.9" fill-rule="evenodd" clip-rule="evenodd" d="M0.819946 2.16521C0.819946 0.939929 1.84507 0.0389404 2.99454 0.0389404H14.5924C15.7419 0.0389404 16.767 0.939929 16.767 2.16521V9.07562C16.767 10.3009 15.7419 11.2019 14.5924 11.2019H9.51833V13.4344H12.0554C12.4557 13.4344 12.7802 13.7676 12.7802 14.1786C12.7802 14.5897 12.4557 14.9228 12.0554 14.9228H5.53157C5.13124 14.9228 4.8067 14.5897 4.8067 14.1786C4.8067 13.7676 5.13124 13.4344 5.53157 13.4344H8.0686V11.2019H2.99454C1.84507 11.2019 0.819946 10.3009 0.819946 9.07562V2.16521ZM2.99454 1.52733C2.54268 1.52733 2.26968 1.86389 2.26968 2.16521V9.07562C2.26968 9.37687 2.54268 9.71347 2.99454 9.71347H14.5924C15.0443 9.71347 15.3172 9.37687 15.3172 9.07562V2.16521C15.3172 1.86389 15.0443 1.52733 14.5924 1.52733H2.99454Z" fill="black"/>
</svg>
