<svg width="18" height="18" viewBox="0 0 18 18" fill="none" xmlns="http://www.w3.org/2000/svg">
<path d="M9.07959 17.358C13.4832 17.358 17.0531 13.6766 17.0531 9.13535C17.0531 4.59408 13.4832 0.912659 9.07959 0.912659C4.67594 0.912659 1.10608 4.59408 1.10608 9.13535C1.10608 13.6766 4.67594 17.358 9.07959 17.358Z" stroke="black" stroke-width="1.25" stroke-linecap="round" stroke-linejoin="round"/>
<path d="M10.9153 7.24215C9.90155 6.19664 5.04089 4.96997 5.04089 4.96997C5.04089 4.96997 6.2301 9.98283 7.24381 11.0284C7.73068 11.5305 8.39103 11.8126 9.07957 11.8126C9.76812 11.8126 10.4285 11.5305 10.9153 11.0284C11.4022 10.5263 11.6757 9.84534 11.6757 9.13528C11.6757 8.42522 11.4022 7.74424 10.9153 7.24215Z" stroke="black" stroke-width="1.25" stroke-linecap="round" stroke-linejoin="round"/>
</svg>
