<svg width="17" height="17" viewBox="0 0 17 17" fill="none" xmlns="http://www.w3.org/2000/svg">
<path fill-rule="evenodd" clip-rule="evenodd" d="M15.5577 8.73529C15.5577 12.405 12.5828 15.3799 8.91309 15.3799C5.24338 15.3799 2.26849 12.405 2.26849 8.73529C2.26849 5.06558 5.24338 2.0907 8.91309 2.0907C12.5828 2.0907 15.5577 5.06558 15.5577 8.73529ZM16.8866 8.73529C16.8866 13.139 13.3168 16.7088 8.91309 16.7088C4.50944 16.7088 0.939575 13.139 0.939575 8.73529C0.939575 4.33165 4.50944 0.76178 8.91309 0.76178C13.3168 0.76178 16.8866 4.33165 16.8866 8.73529ZM8.24863 10.0642V5.413H9.57755V10.0642H8.24863ZM8.24863 12.0576V10.7287H9.57755V12.0576H8.24863Z" fill="#080341"/>
</svg>
