<svg width="17" height="16" viewBox="0 0 17 16" fill="none" xmlns="http://www.w3.org/2000/svg">
<path d="M8.1881 3.3057L7.78268 3.69751C7.88763 3.81354 8.03438 3.87939 8.1881 3.87939C8.34181 3.87939 8.48857 3.81354 8.59351 3.69751L8.1881 3.3057ZM1.26958 9.50763C1.42822 9.77879 1.76947 9.86561 2.03177 9.70169C2.29408 9.53769 2.37811 9.18499 2.21947 8.9139L1.26958 9.50763ZM4.14532 11.4112C3.93146 11.1842 3.58004 11.1794 3.36041 11.4004C3.14079 11.6214 3.13612 11.9847 3.34999 12.2116L4.14532 11.4112ZM1.34241 6.16907C1.34241 3.94729 2.28057 2.57382 3.44128 2.10407C4.59942 1.63536 6.21979 1.9699 7.78268 3.69751L8.59351 2.91389C6.82621 0.960254 4.74619 0.343755 3.03651 1.03568C1.3294 1.72657 0.2323 3.62541 0.2323 6.16907H1.34241ZM10.7864 14.3105C11.8909 13.3841 13.2142 12.1425 14.2661 10.7559C15.3073 9.38333 16.1439 7.78909 16.1439 6.16905H15.0338C15.0338 7.40166 14.383 8.74218 13.3925 10.0479C12.4127 11.3395 11.1599 12.5196 10.0869 13.4196L10.7864 14.3105ZM16.1439 6.16905C16.1439 3.62541 15.0468 1.72656 13.3397 1.03568C11.63 0.343755 9.54998 0.960254 7.78268 2.91389L8.59351 3.69751C10.1564 1.9699 11.7768 1.63535 12.9349 2.10407C14.0956 2.57381 15.0338 3.94727 15.0338 6.16905H16.1439ZM5.5898 14.3105C6.53076 15.0997 7.1833 15.6789 8.1881 15.6789V14.5315C7.6531 14.5315 7.31992 14.2839 6.2893 13.4196L5.5898 14.3105ZM10.0869 13.4196C9.05628 14.2839 8.72309 14.5315 8.1881 14.5315V15.6789C9.19289 15.6789 9.84542 15.0997 10.7864 14.3105L10.0869 13.4196ZM2.21947 8.9139C1.66664 7.96915 1.34241 7.03917 1.34241 6.16907H0.2323C0.2323 7.32578 0.658923 8.46413 1.26958 9.50763L2.21947 8.9139ZM6.2893 13.4196C5.61065 12.8503 4.85697 12.1666 4.14532 11.4112L3.34999 12.2116C4.09954 13.0072 4.88734 13.7213 5.5898 14.3105L6.2893 13.4196Z" fill="#1C274C"/>
</svg>
