<svg width="26" height="27" viewBox="0 0 26 27" fill="none" xmlns="http://www.w3.org/2000/svg">
<g clip-path="url(#clip0_89_2678)">
<path d="M4.06159 3.75049C3.84694 3.75093 3.6412 3.83629 3.48927 3.98793C3.33734 4.13957 3.25153 4.34516 3.25067 4.55982V11.8771C3.25153 12.0917 3.33734 12.2973 3.48927 12.449C3.6412 12.6006 3.84694 12.686 4.06159 12.6864H11.3788C11.5932 12.6856 11.7986 12.6 11.9502 12.4484C12.1018 12.2968 12.1873 12.0915 12.1881 11.8771V4.55982C12.1873 4.34543 12.1018 4.14007 11.9502 3.98848C11.7986 3.83689 11.5932 3.75135 11.3788 3.75049H4.06159ZM4.87729 5.37549H10.5632V11.0614H4.87729V5.37549ZM14.6225 7.80982C14.5158 7.81024 14.4102 7.83166 14.3118 7.87288C14.2134 7.9141 14.1241 7.97429 14.0489 8.05004C13.9738 8.12578 13.9142 8.21558 13.8738 8.31431C13.8333 8.41305 13.8127 8.5188 13.8132 8.6255C13.8136 8.84016 13.899 9.04594 14.0506 9.19788C14.2023 9.34982 14.4078 9.43557 14.6225 9.43641H21.9398C22.1547 9.43599 22.3608 9.35042 22.5128 9.19844C22.6648 9.04645 22.7503 8.84044 22.7507 8.6255C22.7511 8.51866 22.7304 8.41279 22.6899 8.31395C22.6493 8.21511 22.5898 8.12524 22.5145 8.04947C22.4391 7.97371 22.3495 7.91355 22.2509 7.87242C22.1523 7.8313 22.0466 7.81003 21.9398 7.80982H14.6225ZM4.06159 14.3114C3.84666 14.3119 3.64068 14.3974 3.48871 14.5494C3.33673 14.7014 3.25111 14.9074 3.25067 15.1223V22.4396C3.25153 22.6542 3.33734 22.8598 3.48927 23.0115C3.6412 23.1631 3.84694 23.2485 4.06159 23.2489H11.3788C11.5932 23.2481 11.7986 23.1625 11.9502 23.0109C12.1018 22.8593 12.1873 22.654 12.1881 22.4396V15.1223C12.1877 14.9077 12.1024 14.7019 11.9507 14.55C11.7991 14.398 11.5935 14.3123 11.3788 14.3114H4.06159ZM4.87729 15.938H10.5632V21.6239H4.87729V15.938ZM14.6225 18.3723C14.5158 18.3727 14.4102 18.3942 14.3118 18.4354C14.2134 18.4766 14.1241 18.5368 14.0489 18.6125C13.9738 18.6883 13.9142 18.7781 13.8738 18.8768C13.8333 18.9756 13.8127 19.0813 13.8132 19.188C13.814 19.4024 13.8996 19.6078 14.0512 19.7594C14.2028 19.911 14.4081 19.9965 14.6225 19.9973H21.9398C22.1545 19.9969 22.3603 19.9116 22.5122 19.7599C22.6641 19.6083 22.7499 19.4027 22.7507 19.188C22.7511 19.0812 22.7304 18.9753 22.6899 18.8765C22.6493 18.7776 22.5898 18.6877 22.5145 18.612C22.4391 18.5362 22.3495 18.4761 22.2509 18.4349C22.1523 18.3938 22.0466 18.3725 21.9398 18.3723H14.6225Z" fill="#999999"/>
</g>
<defs>
<clipPath id="clip0_89_2678">
<rect width="26" height="26" fill="white" transform="translate(0 0.5)"/>
</clipPath>
</defs>
</svg>
