<svg width="17" height="17" viewBox="0 0 17 17" fill="none" xmlns="http://www.w3.org/2000/svg">
<path d="M5.3809 7.8335V5.16683C5.3809 4.28277 5.73209 3.43493 6.35721 2.80981C6.98233 2.18469 7.83018 1.8335 8.71423 1.8335C9.59829 1.8335 10.4461 2.18469 11.0713 2.80981C11.6964 3.43493 12.0476 4.28277 12.0476 5.16683V7.8335M4.04757 7.8335H13.3809C14.1173 7.8335 14.7142 8.43045 14.7142 9.16683V13.8335C14.7142 14.5699 14.1173 15.1668 13.3809 15.1668H4.04757C3.31119 15.1668 2.71423 14.5699 2.71423 13.8335V9.16683C2.71423 8.43045 3.31119 7.8335 4.04757 7.8335Z" stroke="#FF383C" stroke-width="1.6" stroke-linecap="round" stroke-linejoin="round"/>
</svg>
