<svg width="18" height="13" viewBox="0 0 18 13" fill="none" xmlns="http://www.w3.org/2000/svg">
<path opacity="0.9" d="M5.17981 8.8477L3.67688 7.34477C5.03058 5.99107 6.89594 5.15967 8.95314 5.15967C11.0103 5.15967 12.8757 5.99107 14.2294 7.34477L12.7264 8.8477C11.7565 7.88838 10.4241 7.29148 8.95314 7.29148C7.48219 7.29148 6.14978 7.88838 5.17981 8.8477Z" fill="#DB4462"/>
<path opacity="0.9" d="M7.22505 10.3978L6.60046 9.80214C7.16304 9.26558 7.93825 8.93604 8.79319 8.93604C9.64812 8.93604 10.4233 9.26558 10.9859 9.80214L10.3613 10.3978C9.95821 10.0176 9.40449 9.78101 8.79319 9.78101C8.18189 9.78101 7.62816 10.0176 7.22505 10.3978Z" fill="#DB4462"/>
<path opacity="0.9" d="M0.753296 4.32827C2.87445 2.20712 5.80568 0.896057 9.04607 0.896057C12.2864 0.896057 15.2177 2.20712 17.3281 4.33893L15.8252 5.84186C14.0985 4.10443 11.7002 3.02787 9.04607 3.02787C6.39193 3.02787 3.99365 4.10443 2.25622 5.8312L0.753296 4.32827Z" fill="#DB4462"/>
<line x1="14.8882" y1="12.4334" x2="1.001" y2="0.738936" stroke="#DF5772" stroke-width="1.5"/>
</svg>
