<svg width="18" height="21" viewBox="0 0 18 21" fill="none" xmlns="http://www.w3.org/2000/svg">
<path d="M15.0743 17.7403H1.17594C0.766017 17.7403 0.393382 17.5337 0.177607 17.1872C-0.0381672 16.8406 -0.0583858 16.4137 0.12271 16.0456L0.473787 15.3513C0.770636 14.757 0.928166 14.0889 0.928166 13.422V7.40319C0.928166 3.5177 3.86305 0.274857 7.60928 0.0205199C9.21303 -0.0991169 10.7586 0.306255 12.0851 1.18756C12.3159 1.34121 12.3787 1.65306 12.2257 1.88383C12.0727 2.11527 11.7609 2.17606 11.5294 2.02442C10.3899 1.26603 9.05095 0.917561 7.68058 1.02213C4.45608 1.24112 1.93246 4.04398 1.93246 7.40312V13.4219C1.93246 14.2444 1.73831 15.0668 1.37083 15.8017L1.02102 16.4934C0.986344 16.5653 1.01185 16.6268 1.0308 16.6569C1.04907 16.6862 1.09226 16.736 1.17594 16.736H15.0743C15.158 16.736 15.2012 16.6863 15.2194 16.6569C15.2384 16.6268 15.2639 16.5653 15.2266 16.4888L14.8807 15.8037C14.512 15.0668 14.3178 14.2444 14.3178 13.4219V9.87378C14.3178 9.59655 14.5427 9.37167 14.82 9.37167C15.0972 9.37167 15.3221 9.59655 15.3221 9.87378V13.4219C15.3221 14.0888 15.4797 14.7569 15.7778 15.3532L16.125 16.041C16.3087 16.4136 16.2884 16.8406 16.0727 17.1871C15.857 17.5336 15.4842 17.7403 15.0743 17.7403Z" fill="#1969BF"/>
<path d="M8.12512 20.4182C6.37167 20.4182 4.94507 18.9916 4.94507 17.2382C4.94507 16.961 5.16995 16.7361 5.44718 16.7361C5.72441 16.7361 5.94929 16.961 5.94929 17.2382C5.94929 18.4379 6.9254 19.414 8.12512 19.414C9.32483 19.414 10.3009 18.4379 10.3009 17.2382C10.3009 16.961 10.5258 16.7361 10.8031 16.7361C11.0803 16.7361 11.3052 16.961 11.3052 17.2382C11.3052 18.9916 9.87856 20.4182 8.12512 20.4182Z" fill="#1969BF"/>
<path d="M14.82 8.36748C13.0665 8.36748 11.6399 6.94088 11.6399 5.18743C11.6399 3.43399 13.0665 2.00739 14.82 2.00739C16.5734 2.00739 18 3.43399 18 5.18743C18 6.94088 16.5734 8.36748 14.82 8.36748ZM14.82 3.01161C13.6202 3.01161 12.6441 3.98772 12.6441 5.18743C12.6441 6.38715 13.6202 7.36326 14.82 7.36326C16.0197 7.36326 16.9958 6.38715 16.9958 5.18743C16.9958 3.98772 16.0197 3.01161 14.82 3.01161Z" fill="#1969BF"/>
</svg>
