<svg width="10" height="12" viewBox="0 0 10 12" fill="none" xmlns="http://www.w3.org/2000/svg">
<mask id="path-1-inside-1_148_3390" fill="white">
<path d="M0 5.88559C0 6.02642 0.114183 6.14062 0.255032 6.14062C0.395882 6.14062 0.510065 6.02642 0.510065 5.88559H0ZM0.510065 5.88559C0.510065 3.49113 2.45116 1.55004 4.84561 1.55004V1.03998C2.16945 1.03998 0 3.20943 0 5.88559H0.510065ZM4.84561 1.55004C6.54755 1.55004 8.02087 2.53064 8.73062 3.95883L9.18739 3.73183C8.3948 2.13693 6.74856 1.03998 4.84561 1.03998V1.55004Z"/>
</mask>
<path d="M0 5.88559C0 6.02642 0.114183 6.14062 0.255032 6.14062C0.395882 6.14062 0.510065 6.02642 0.510065 5.88559H0ZM0.510065 5.88559C0.510065 3.49113 2.45116 1.55004 4.84561 1.55004V1.03998C2.16945 1.03998 0 3.20943 0 5.88559H0.510065ZM4.84561 1.55004C6.54755 1.55004 8.02087 2.53064 8.73062 3.95883L9.18739 3.73183C8.3948 2.13693 6.74856 1.03998 4.84561 1.03998V1.55004Z" fill="black"/>
<path d="M0.510065 5.88559V4.63559H0V5.88559V7.13559H0.510065V5.88559ZM4.84561 1.55004H6.09561V1.03998H4.84561H3.59561V1.55004H4.84561ZM8.73062 3.95883L6.49184 5.07142L7.60444 7.31023L9.84323 6.19761L8.73062 3.95883ZM9.18739 3.73183L10.3 5.97061L12.5387 4.85801L11.4262 2.61926L9.18739 3.73183ZM0 5.88559H-2.5C-2.5 7.407 -1.26666 8.64062 0.255032 8.64062V6.14062V3.64062C1.49503 3.64062 2.5 4.64584 2.5 5.88559H0ZM0.255032 6.14062V8.64062C1.77672 8.64062 3.01006 7.407 3.01006 5.88559H0.510065H-1.98994C-1.98994 4.64584 -0.98496 3.64062 0.255032 3.64062V6.14062ZM0.510065 5.88559H3.01006C3.01006 4.87185 3.83187 4.05004 4.84561 4.05004V1.55004V-0.949957C1.07044 -0.949957 -1.98994 2.11042 -1.98994 5.88559H0.510065ZM4.84561 1.03998V-1.46002C0.788741 -1.46002 -2.5 1.82872 -2.5 5.88559H0H2.5C2.5 4.59014 3.55016 3.53998 4.84561 3.53998V1.03998ZM4.84561 1.55004V4.05004C5.56255 4.05004 6.18828 4.46058 6.49184 5.07142L8.73062 3.95883L10.9694 2.84625C9.85346 0.600706 7.53254 -0.949957 4.84561 -0.949957V1.55004ZM8.73062 3.95883L9.84323 6.19761L10.3 5.97061L9.18739 3.73183L8.07478 1.49306L7.61801 1.72006L8.73062 3.95883ZM9.18739 3.73183L11.4262 2.61926C10.2276 0.20747 7.73407 -1.46002 4.84561 -1.46002V1.03998V3.53998C5.76306 3.53998 6.56196 4.0664 6.9486 4.84441L9.18739 3.73183Z" fill="#2268FF" mask="url(#path-1-inside-1_148_3390)"/>
<path d="M9.1667 1V3.88536H6.28131" stroke="#2268FF" stroke-width="0.5" stroke-linecap="round" stroke-linejoin="round"/>
<mask id="path-4-inside-2_148_3390" fill="white">
<path d="M9.69125 5.88559C9.69125 5.74476 9.57705 5.63055 9.43622 5.63055C9.29539 5.63055 9.18119 5.74476 9.18119 5.88559H9.69125ZM9.18119 5.88559C9.18119 8.28003 7.24009 10.2211 4.84564 10.2211V10.7312C7.52179 10.7312 9.69125 8.56174 9.69125 5.88559H9.18119ZM4.84564 10.2211C3.14372 10.2211 1.67037 9.24054 0.960618 7.81236L0.503845 8.03933C1.29645 9.63426 2.9427 10.7312 4.84564 10.7312V10.2211Z"/>
</mask>
<path d="M9.69125 5.88559C9.69125 5.74476 9.57705 5.63055 9.43622 5.63055C9.29539 5.63055 9.18119 5.74476 9.18119 5.88559H9.69125ZM9.18119 5.88559C9.18119 8.28003 7.24009 10.2211 4.84564 10.2211V10.7312C7.52179 10.7312 9.69125 8.56174 9.69125 5.88559H9.18119ZM4.84564 10.2211C3.14372 10.2211 1.67037 9.24054 0.960618 7.81236L0.503845 8.03933C1.29645 9.63426 2.9427 10.7312 4.84564 10.7312V10.2211Z" fill="black"/>
<path d="M9.18119 5.88559V7.13559H9.69125V5.88559V4.63559H9.18119V5.88559ZM4.84564 10.2211H3.59564V10.7312H4.84564H6.09564V10.2211H4.84564ZM0.960618 7.81236L3.1994 6.69977L2.08685 4.46106L-0.151892 5.57353L0.960618 7.81236ZM0.503845 8.03933L-0.608665 5.80051L-2.84755 6.91305L-1.73495 9.15191L0.503845 8.03933ZM9.69125 5.88559H12.1913C12.1913 4.36405 10.9578 3.13055 9.43622 3.13055V5.63055V8.13055C8.19634 8.13055 7.19125 7.12547 7.19125 5.88559H9.69125ZM9.43622 5.63055V3.13055C7.91468 3.13055 6.68119 4.36405 6.68119 5.88559H9.18119H11.6812C11.6812 7.12547 10.6761 8.13055 9.43622 8.13055V5.63055ZM9.18119 5.88559H6.68119C6.68119 6.89932 5.85937 7.72114 4.84564 7.72114V10.2211V12.7211C8.6208 12.7211 11.6812 9.66075 11.6812 5.88559H9.18119ZM4.84564 10.7312V13.2312C8.90251 13.2312 12.1913 9.94245 12.1913 5.88559H9.69125H7.19125C7.19125 7.18103 6.14108 8.2312 4.84564 8.2312V10.7312ZM4.84564 10.2211V7.72114C4.12869 7.72114 3.50295 7.31058 3.1994 6.69977L0.960618 7.81236L-1.27816 8.92494C-0.162216 11.1705 2.15875 12.7211 4.84564 12.7211V10.2211ZM0.960618 7.81236L-0.151892 5.57353L-0.608665 5.80051L0.503845 8.03933L1.61636 10.2782L2.07313 10.0512L0.960618 7.81236ZM0.503845 8.03933L-1.73495 9.15191C-0.536383 11.5637 1.95721 13.2312 4.84564 13.2312V10.7312V8.2312C3.92819 8.2312 3.12927 7.70478 2.74264 6.92676L0.503845 8.03933Z" fill="#2268FF" mask="url(#path-4-inside-2_148_3390)"/>
<path d="M0.524597 10.7713V7.88593H3.40996" stroke="#2268FF" stroke-width="0.5" stroke-linecap="round" stroke-linejoin="round"/>
</svg>
