<svg width="18" height="17" viewBox="0 0 18 17" fill="none" xmlns="http://www.w3.org/2000/svg">
<path d="M8.70625 0.76178C4.90207 0.76178 1.77475 3.80947 1.46982 7.69526H0.70753C0.466367 7.69526 0.249037 7.84785 0.157184 8.08165C0.0653313 8.31545 0.117114 8.58419 0.288312 8.76224L1.62143 10.149C1.85349 10.3903 2.22781 10.3903 2.45987 10.149L3.79299 8.76224C3.96419 8.58419 4.01597 8.31545 3.92412 8.08165C3.83226 7.84785 3.61493 7.69526 3.37377 7.69526H2.66519C2.96655 4.50726 5.55235 2.00981 8.70625 2.00981C10.9042 2.00981 12.8281 3.22327 13.8938 5.04069C14.066 5.33427 14.4325 5.42596 14.7126 5.24547C14.9927 5.06498 15.0801 4.68066 14.9079 4.38707C13.6331 2.21305 11.3318 0.76178 8.70625 0.76178Z" fill="#1C274C"/>
<path d="M15.613 7.32078C15.382 7.08049 15.0102 7.08049 14.7792 7.32078L13.4457 8.7075C13.2745 8.88539 13.2226 9.1543 13.3139 9.38843C13.4053 9.62248 13.622 9.77532 13.8626 9.77532H14.5736C14.2721 12.9615 11.6864 15.4608 8.52852 15.4608C6.328 15.4608 4.4028 14.2463 3.33684 12.429C3.16481 12.1357 2.79937 12.0446 2.5206 12.2257C2.24184 12.4067 2.15532 12.7911 2.32735 13.0844C3.60265 15.2586 5.90396 16.7088 8.52852 16.7088C12.3307 16.7088 15.4599 13.6629 15.7649 9.77532H16.5297C16.7702 9.77532 16.9868 9.62248 17.0783 9.38843C17.1697 9.1543 17.1177 8.88539 16.9466 8.7075L15.613 7.32078Z" fill="#1C274C"/>
</svg>
