<svg width="18" height="20" viewBox="0 0 18 20" fill="none" xmlns="http://www.w3.org/2000/svg">
<path d="M14.228 19.08H15.2205C16.3169 19.08 17.2056 18.1772 17.2056 17.0634C17.2056 15.9497 16.3169 15.0469 15.2205 15.0469H14.228M11.2504 15.0469H10.2578C9.16148 15.0469 8.27277 15.9497 8.27277 17.0634C8.27277 18.1772 9.16148 19.08 10.2578 19.08H11.2504M11.2504 17.0634H14.228M6.28769 8.99711H1.32501M17.2056 6.98053V4.96395C17.2056 3.85022 16.3169 2.94737 15.2205 2.94737H3.31009C2.21376 2.94737 1.32501 3.85022 1.32501 4.96395V17.0634C1.32501 18.1772 2.21376 19.08 3.31009 19.08H5.29516M12.2429 0.930786V4.96395M6.28769 0.930786V4.96395" stroke="#1A1A1A" stroke-width="1.3" stroke-linecap="round" stroke-linejoin="round"/>
</svg>
