<svg width="22" height="24" viewBox="0 0 22 24" fill="none" xmlns="http://www.w3.org/2000/svg">
<path d="M17.25 23H18.5C19.8808 23 21 21.9056 21 20.5556C21 19.2055 19.8808 18.1111 18.5 18.1111H17.25M13.5 18.1111H12.25C10.8693 18.1111 9.75 19.2055 9.75 20.5556C9.75 21.9056 10.8693 23 12.25 23H13.5M13.5 20.5556H17.25M7.25 10.7778H1M21 8.33333V5.88889C21 4.53886 19.8808 3.44444 18.5 3.44444H3.5C2.11929 3.44444 1 4.53886 1 5.88889V20.5556C1 21.9056 2.11929 23 3.5 23H6M14.75 1V5.88889M7.25 1V5.88889" stroke="#787486" stroke-width="1.3" stroke-linecap="round" stroke-linejoin="round"/>
</svg>
