<svg width="24" height="25" viewBox="0 0 24 25" fill="none" xmlns="http://www.w3.org/2000/svg">
<path d="M12 15.4182C13.6569 15.4182 15 14.0751 15 12.4182C15 10.7614 13.6569 9.41821 12 9.41821C10.3431 9.41821 9 10.7614 9 12.4182C9 14.0751 10.3431 15.4182 12 15.4182Z" stroke="#1969BF" stroke-width="1.5" stroke-miterlimit="10" stroke-linecap="round" stroke-linejoin="round"/>
<path d="M2 13.2982V11.5382C2 10.4982 2.85 9.63821 3.9 9.63821C5.71 9.63821 6.45 8.35821 5.54 6.78821C5.02 5.88821 5.33 4.71821 6.24 4.19821L7.97 3.20821C8.76 2.73821 9.78 3.01821 10.25 3.80821L10.36 3.99821C11.26 5.56821 12.74 5.56821 13.65 3.99821L13.76 3.80821C14.23 3.01821 15.25 2.73821 16.04 3.20821L17.77 4.19821C18.68 4.71821 18.99 5.88821 18.47 6.78821C17.56 8.35821 18.3 9.63821 20.11 9.63821C21.15 9.63821 22.01 10.4882 22.01 11.5382V13.2982C22.01 14.3382 21.16 15.1982 20.11 15.1982C18.3 15.1982 17.56 16.4782 18.47 18.0482C18.99 18.9582 18.68 20.1182 17.77 20.6382L16.04 21.6282C15.25 22.0982 14.23 21.8182 13.76 21.0282L13.65 20.8382C12.75 19.2682 11.27 19.2682 10.36 20.8382L10.25 21.0282C9.78 21.8182 8.76 22.0982 7.97 21.6282L6.24 20.6382C5.33 20.1182 5.02 18.9482 5.54 18.0482C6.45 16.4782 5.71 15.1982 3.9 15.1982C2.85 15.1982 2 14.3382 2 13.2982Z" stroke="#1969BF" stroke-width="1.5" stroke-miterlimit="10" stroke-linecap="round" stroke-linejoin="round"/>
</svg>
