<svg width="17" height="10" viewBox="0 0 17 10" fill="none" xmlns="http://www.w3.org/2000/svg">
<path opacity="0.9" d="M4.78869 7.88289L3.28967 6.32322C4.63985 4.9184 6.50036 4.0556 8.55221 4.0556C10.6041 4.0556 12.4645 4.9184 13.8147 6.32322L12.3157 7.88289C11.3482 6.88735 10.0193 6.26791 8.55221 6.26791C7.08509 6.26791 5.75614 6.88735 4.78869 7.88289Z" fill="#48AE6D"/>
<path opacity="0.9" d="M6.70525 9.79658L6.16016 9.01674C6.65113 8.31433 7.32768 7.88293 8.07381 7.88293C8.81993 7.88293 9.49647 8.31433 9.98744 9.01674L9.44235 9.79658C9.09055 9.29881 8.6073 8.98909 8.07381 8.98909C7.54031 8.98909 7.05705 9.29881 6.70525 9.79658Z" fill="#48AE6D"/>
<path opacity="0.9" d="M0.419189 3.54834C2.50081 1.49653 5.37742 0.228333 8.55742 0.228333C11.7374 0.228333 14.614 1.49653 16.6852 3.55865L15.2102 5.01244C13.5157 3.33182 11.1621 2.29045 8.55742 2.29045C5.95275 2.29045 3.59915 3.33182 1.89411 5.00213L0.419189 3.54834Z" fill="#48AE6D"/>
</svg>
